# xmcd CD database file
#
# Track frame offsets:
#	150
#	16247
#	34737
#	53455
#	70062
#	90297
#	111317
#	128500
#	146835
#	163787
#	181190
#
# Disc length: 2684 seconds
#
# Revision: 0
# Processed by: cddbd v1.5.1PL0 Copyright (c) Steve Scherf et al.
# Submitted via: CDex 1.51
#
DISCID=850a7a0b
DTITLE=矢沢永吉 - ＯＮＬＹ　ＯＮＥ
DYEAR=2005
DGENRE=ヤ〜ヨ
TTITLE0=ＯＮＬＹ　ＯＮＥ
TTITLE1=白い影
TTITLE2=パンチドランカー
TTITLE3=トワイライトにひとり
TTITLE4=欲望の嵐
TTITLE5=Ｓｗｅｅｔ　Ｗｉｎｔｅｒ
TTITLE6=居場所
TTITLE7=真昼
TTITLE8=Ｂｅ　ｓｏｍｅｂｏｄｙ
TTITLE9=ＧＯ ＦＯＲ ＩＴ！（やっちまえ！）
TTITLE10=面影
EXTD=YEAR: 2005
EXTT0=
EXTT1=
EXTT2=
EXTT3=
EXTT4=
EXTT5=
EXTT6=
EXTT7=
EXTT8=
EXTT9=
EXTT10=
PLAYORDER=
